<svg xmlns="http://www.w3.org/2000/svg" viewBox="0 0 1400 1700" width="1400" height="1700" style="background:#ffffff; font-family: 'Inter', system-ui, -apple-system, sans-serif;">
  <defs>
    <style>
      .title { font-size: 32px; font-weight: 800; fill: #0f172a; text-anchor: middle; }
      .subtitle { font-size: 16px; font-weight: 500; fill: #64748b; text-anchor: middle; }
      .badge-hdr { font-size: 13px; font-weight: 700; fill: #2563eb; letter-spacing: 1.5px; text-transform: uppercase; text-anchor: middle; }
      .layer-title { font-size: 18px; font-weight: 800; fill: #0f172a; }
      .layer-subtitle { font-size: 13px; font-weight: 500; fill: #64748b; }
      .card-title { font-size: 14px; font-weight: 700; fill: #0f172a; }
      .card-desc { font-size: 12px; fill: #475569; }
      .badge-completed { font-size: 10px; font-weight: 700; fill: #1d4ed8; }
      .badge-future { font-size: 10px; font-weight: 700; fill: #64748b; }
      .arrow-text { font-size: 12px; font-weight: 700; fill: #1d4ed8; text-anchor: middle; }
      .tbl-name { font-family: monospace; font-size: 13px; font-weight: 700; fill: #1e3a8a; }
      .tbl-cols { font-size: 11px; fill: #64748b; }
    </style>
    <marker id="arrow" viewBox="0 0 10 10" refX="6" refY="5" markerWidth="6" markerHeight="6" orient="auto-start-reverse">
      <path d="M 0 0 L 10 5 L 0 10 z" fill="#2563eb"/>
    </marker>
  </defs>

  <!-- Container Box -->
  <rect x="20" y="20" width="1360" height="1660" rx="20" fill="#ffffff" stroke="#e2e8f0" stroke-width="2"/>

  <!-- Header -->
  <rect x="550" y="50" width="300" height="30" rx="15" fill="#eff6ff" stroke="#bfdbfe" stroke-width="1"/>
  <text x="700" y="70" class="badge-hdr">CAPSTONE PROJECT ARCHITECTURE</text>
  <text x="700" y="120" class="title">Agricultural Equipment Rental Marketplace</text>
  <text x="700" y="150" class="subtitle">System Architecture &amp; Multi-Layer Modular Data Flow Diagram</text>

  <!-- Tech Stack Pills -->
  <g transform="translate(140, 175)">
    <rect x="0" y="0" width="140" height="32" rx="8" fill="#1e40af"/><text x="70" y="21" fill="#ffffff" font-size="13" font-weight="600" text-anchor="middle">Frontend: React.js</text>
    <rect x="150" y="0" width="200" height="32" rx="8" fill="#1e40af"/><text x="250" y="21" fill="#ffffff" font-size="13" font-weight="600" text-anchor="middle">Backend: Node &amp; Express</text>
    <rect x="360" y="0" width="130" height="32" rx="8" fill="#1e40af"/><text x="425" y="21" fill="#ffffff" font-size="13" font-weight="600" text-anchor="middle">Database: MySQL</text>
    <rect x="500" y="0" width="90" height="32" rx="8" fill="#f8fafc" stroke="#cbd5e1"/><text x="545" y="21" fill="#334155" font-size="13" font-weight="600" text-anchor="middle">Auth: JWT</text>
    <rect x="600" y="0" width="100" height="32" rx="8" fill="#f8fafc" stroke="#cbd5e1"/><text x="650" y="21" fill="#334155" font-size="13" font-weight="600" text-anchor="middle">Hash: bcrypt</text>
    <rect x="710" y="0" width="120" height="32" rx="8" fill="#f8fafc" stroke="#cbd5e1"/><text x="770" y="21" fill="#334155" font-size="13" font-weight="600" text-anchor="middle">Uploads: Multer</text>
    <rect x="840" y="0" width="110" height="32" rx="8" fill="#f8fafc" stroke="#cbd5e1"/><text x="895" y="21" fill="#334155" font-size="13" font-weight="600" text-anchor="middle">API: REST API</text>
    <rect x="960" y="0" width="150" height="32" rx="8" fill="#f8fafc" stroke="#cbd5e1"/><text x="1035" y="21" fill="#334155" font-size="13" font-weight="600" text-anchor="middle">VCS: Git &amp; GitHub</text>
  </g>

  <!-- Legend Bar -->
  <rect x="60" y="230" width="1280" height="40" rx="10" fill="#f8fafc" stroke="#e2e8f0"/>
  <text x="100" y="255" font-size="13" font-weight="700" fill="#475569">Legend:</text>
  <rect x="180" y="240" width="130" height="22" rx="4" fill="#dbeafe" stroke="#93c5fd"/><text x="245" y="255" font-size="11" font-weight="700" fill="#1d4ed8" text-anchor="middle">✓ Completed Module</text>
  <rect x="330" y="240" width="120" height="22" rx="4" fill="#f1f5f9" stroke="#cbd5e1" stroke-dasharray="3 3"/><text x="390" y="255" font-size="11" font-weight="700" fill="#64748b" text-anchor="middle">⏳ Future Module</text>
  <text x="600" y="255" font-size="13" font-weight="700" fill="#2563eb">↓ HTTP / REST Protocol</text>
  <text x="880" y="255" font-size="13" font-weight="700" fill="#0284c7">🗄️ Relational MySQL Persistence</text>

  <!-- LAYER 1 -->
  <g transform="translate(60, 295)">
    <rect x="0" y="0" width="1280" height="210" rx="16" fill="#fafafa" stroke="#2563eb" stroke-width="2"/>
    <rect x="20" y="16" width="75" height="24" rx="12" fill="#2563eb"/><text x="57" y="32" font-size="12" font-weight="800" fill="#ffffff" text-anchor="middle">LAYER 1</text>
    <text x="105" y="33" class="layer-title">Client Layer</text>
    <text x="1260" y="33" class="layer-subtitle" text-anchor="end">User Interfaces &amp; SPA Client Application</text>
    <line x1="20" y1="50" x2="1260" y2="50" stroke="#e2e8f0" stroke-width="2"/>

    <!-- Roles -->
    <g transform="translate(20, 65)">
      <rect x="0" y="0" width="115" height="120" rx="10" fill="#ffffff" stroke="#cbd5e1"/><text x="57" y="35" font-size="24" text-anchor="middle">👨‍🌾</text><text x="57" y="65" font-size="13" font-weight="700" fill="#0f172a" text-anchor="middle">Farmer</text><text x="57" y="85" font-size="11" fill="#64748b" text-anchor="middle">Browse &amp; Rent</text>
      <rect x="130" y="0" width="135" height="120" rx="10" fill="#ffffff" stroke="#cbd5e1"/><text x="197" y="35" font-size="24" text-anchor="middle">🚜</text><text x="197" y="65" font-size="13" font-weight="700" fill="#0f172a" text-anchor="middle">Equipment Owner</text><text x="197" y="85" font-size="11" fill="#64748b" text-anchor="middle">Post &amp; Manage</text>
      <rect x="280" y="0" width="115" height="120" rx="10" fill="#ffffff" stroke="#cbd5e1"/><text x="337" y="35" font-size="24" text-anchor="middle">🛡️</text><text x="337" y="65" font-size="13" font-weight="700" fill="#0f172a" text-anchor="middle">Admin</text><text x="337" y="85" font-size="11" fill="#64748b" text-anchor="middle">Platform Mgmt</text>
    </g>

    <!-- React App Box -->
    <g transform="translate(440, 65)">
      <rect x="0" y="0" width="820" height="120" rx="12" fill="url(#blueGrad)" stroke="#1d4ed8"/>
      <text x="410" y="40" font-size="18" font-weight="800" fill="#ffffff" text-anchor="middle">React.js Frontend Application</text>
      <text x="410" y="65" font-size="12" fill="#bfdbfe" text-anchor="middle">Single Page Application (SPA), State Management, Axios REST Client</text>
      <g transform="translate(180, 80)">
        <rect x="0" y="0" width="110" height="22" rx="4" fill="rgba(255,255,255,0.2)"/><text x="55" y="15" font-size="11" font-weight="600" fill="#ffffff" text-anchor="middle">React Components</text>
        <rect x="120" y="0" width="90" height="22" rx="4" fill="rgba(255,255,255,0.2)"/><text x="165" y="15" font-size="11" font-weight="600" fill="#ffffff" text-anchor="middle">React Router</text>
        <rect x="220" y="0" width="120" height="22" rx="4" fill="rgba(255,255,255,0.2)"/><text x="280" y="15" font-size="11" font-weight="600" fill="#ffffff" text-anchor="middle">JWT Token Storage</text>
        <rect x="350" y="0" width="110" height="22" rx="4" fill="rgba(255,255,255,0.2)"/><text x="405" y="15" font-size="11" font-weight="600" fill="#ffffff" text-anchor="middle">Responsive UI</text>
      </g>
    </g>
  </g>

  <!-- CONNECTOR 1 -> 2 -->
  <g transform="translate(700, 515)">
    <line x1="0" y1="0" x2="0" y2="35" stroke="#2563eb" stroke-width="3" marker-end="url(#arrow)"/>
    <rect x="-220" y="5" width="440" height="26" rx="13" fill="#ffffff" stroke="#bfdbfe"/>
    <text x="0" y="22" class="arrow-text">HTTPS / JSON REST API Requests (JWT Auth Bearer Token)</text>
  </g>

  <!-- LAYER 2 -->
  <g transform="translate(60, 565)">
    <rect x="0" y="0" width="1280" height="210" rx="16" fill="#ffffff" stroke="#1d4ed8" stroke-width="2"/>
    <rect x="20" y="16" width="75" height="24" rx="12" fill="#2563eb"/><text x="57" y="32" font-size="12" font-weight="800" fill="#ffffff" text-anchor="middle">LAYER 2</text>
    <text x="105" y="33" class="layer-title">Backend Layer</text>
    <text x="1260" y="33" class="layer-subtitle" text-anchor="end">Node.js &amp; Express.js REST API Controllers</text>
    <line x1="20" y1="50" x2="1260" y2="50" stroke="#e2e8f0" stroke-width="2"/>

    <!-- Controllers Grid -->
    <g transform="translate(20, 65)">
      <!-- Auth Controller -->
      <rect x="0" y="0" width="230" height="120" rx="12" fill="#ffffff" stroke="#60a5fa" stroke-width="1.5"/>
      <text x="15" y="25" class="card-title">🔐 Auth Controller</text>
      <rect x="140" y="10" width="75" height="20" rx="4" fill="#dbeafe" stroke="#93c5fd"/><text x="177" y="24" class="badge-completed" text-anchor="middle">COMPLETED</text>
      <text x="15" y="55" class="card-desc">Handles user registration, login,</text>
      <text x="15" y="72" class="card-desc">JWT token issuance &amp; bcrypt</text>
      <text x="15" y="89" class="card-desc">password hashing.</text>

      <!-- Equipment Controller -->
      <rect x="245" y="0" width="230" height="120" rx="12" fill="#ffffff" stroke="#60a5fa" stroke-width="1.5"/>
      <text x="260" y="25" class="card-title">🚜 Equipment Controller</text>
      <rect x="385" y="10" width="75" height="20" rx="4" fill="#dbeafe" stroke="#93c5fd"/><text x="422" y="24" class="badge-completed" text-anchor="middle">COMPLETED</text>
      <text x="260" y="55" class="card-desc">Equipment listings CRUD,</text>
      <text x="260" y="72" class="card-desc">category filter, availability</text>
      <text x="260" y="89" class="card-desc">&amp; image upload handler.</text>

      <!-- Booking Controller -->
      <rect x="490" y="0" width="230" height="120" rx="12" fill="#ffffff" stroke="#60a5fa" stroke-width="1.5"/>
      <text x="505" y="25" class="card-title">📅 Booking Controller</text>
      <rect x="630" y="10" width="75" height="20" rx="4" fill="#dbeafe" stroke="#93c5fd"/><text x="667" y="24" class="badge-completed" text-anchor="middle">COMPLETED</text>
      <text x="505" y="55" class="card-desc">Rental reservation workflow,</text>
      <text x="505" y="72" class="card-desc">date validation &amp; booking</text>
      <text x="505" y="89" class="card-desc">status updates.</text>

      <!-- Payment Controller -->
      <rect x="735" y="0" width="240" height="120" rx="12" fill="#f8fafc" stroke="#94a3b8" stroke-dasharray="5 5" stroke-width="1.5"/>
      <text x="750" y="25" class="card-title">💳 Payment Controller</text>
      <rect x="895" y="10" width="65" height="20" rx="4" fill="#f1f5f9" stroke="#cbd5e1"/><text x="927" y="24" class="badge-future" text-anchor="middle">FUTURE</text>
      <text x="750" y="55" class="card-desc">Transaction processing, invoice</text>
      <text x="750" y="72" class="card-desc">generation &amp; payment gateway</text>
      <text x="750" y="89" class="card-desc">webhook listener.</text>

      <!-- Notification Controller -->
      <rect x="990" y="0" width="245" height="120" rx="12" fill="#f8fafc" stroke="#94a3b8" stroke-dasharray="5 5" stroke-width="1.5"/>
      <text x="1005" y="25" class="card-title">🔔 Notification Controller</text>
      <rect x="1155" y="10" width="65" height="20" rx="4" fill="#f1f5f9" stroke="#cbd5e1"/><text x="1187" y="24" class="badge-future" text-anchor="middle">FUTURE</text>
      <text x="1005" y="55" class="card-desc">Triggers email notifications</text>
      <text x="1005" y="72" class="card-desc">&amp; in-app alerts for bookings</text>
      <text x="1005" y="89" class="card-desc">and payment events.</text>
    </g>
  </g>

  <!-- CONNECTOR 2 -> 3 -->
  <g transform="translate(700, 785)">
    <line x1="0" y1="0" x2="0" y2="35" stroke="#2563eb" stroke-width="3" marker-end="url(#arrow)"/>
    <rect x="-210" y="5" width="420" height="26" rx="13" fill="#ffffff" stroke="#bfdbfe"/>
    <text x="0" y="22" class="arrow-text">Internal Controller Invocation &amp; Service Execution Pipeline</text>
  </g>

  <!-- LAYER 3 -->
  <g transform="translate(60, 835)">
    <rect x="0" y="0" width="1280" height="210" rx="16" fill="#ffffff" stroke="#0284c7" stroke-width="2"/>
    <rect x="20" y="16" width="75" height="24" rx="12" fill="#2563eb"/><text x="57" y="32" font-size="12" font-weight="800" fill="#ffffff" text-anchor="middle">LAYER 3</text>
    <text x="105" y="33" class="layer-title">Business Logic &amp; Middleware Layer</text>
    <text x="1260" y="33" class="layer-subtitle" text-anchor="end">Security, Rules Verification &amp; Domain Processing Logic</text>
    <line x1="20" y1="50" x2="1260" y2="50" stroke="#e2e8f0" stroke-width="2"/>

    <!-- Logic Grid -->
    <g transform="translate(20, 65)">
      <!-- JWT Auth -->
      <rect x="0" y="0" width="230" height="120" rx="12" fill="#ffffff" stroke="#60a5fa" stroke-width="1.5"/>
      <text x="15" y="25" class="card-title">🔑 JWT Auth</text>
      <rect x="140" y="10" width="75" height="20" rx="4" fill="#dbeafe" stroke="#93c5fd"/><text x="177" y="24" class="badge-completed" text-anchor="middle">COMPLETED</text>
      <text x="15" y="55" class="card-desc">Token verification, signature</text>
      <text x="15" y="72" class="card-desc">checking &amp; user context</text>
      <text x="15" y="89" class="card-desc">request injection.</text>

      <!-- Authorization -->
      <rect x="245" y="0" width="230" height="120" rx="12" fill="#ffffff" stroke="#60a5fa" stroke-width="1.5"/>
      <text x="260" y="25" class="card-title">🛡️ Authorization</text>
      <rect x="385" y="10" width="75" height="20" rx="4" fill="#dbeafe" stroke="#93c5fd"/><text x="422" y="24" class="badge-completed" text-anchor="middle">COMPLETED</text>
      <text x="260" y="55" class="card-desc">Role-based access control</text>
      <text x="260" y="72" class="card-desc">(Farmer vs Owner vs Admin</text>
      <text x="260" y="89" class="card-desc">permission rules).</text>

      <!-- Validation -->
      <rect x="490" y="0" width="230" height="120" rx="12" fill="#ffffff" stroke="#60a5fa" stroke-width="1.5"/>
      <text x="505" y="25" class="card-title">📋 Validation</text>
      <rect x="630" y="10" width="75" height="20" rx="4" fill="#dbeafe" stroke="#93c5fd"/><text x="667" y="24" class="badge-completed" text-anchor="middle">COMPLETED</text>
      <text x="505" y="55" class="card-desc">Request data sanitization,</text>
      <text x="505" y="72" class="card-desc">schema validation &amp; payload</text>
      <text x="505" y="89" class="card-desc">type checks.</text>

      <!-- Booking Logic -->
      <rect x="735" y="0" width="240" height="120" rx="12" fill="#ffffff" stroke="#60a5fa" stroke-width="1.5"/>
      <text x="750" y="25" class="card-title">⚙️ Booking Logic</text>
      <rect x="885" y="10" width="75" height="20" rx="4" fill="#dbeafe" stroke="#93c5fd"/><text x="922" y="24" class="badge-completed" text-anchor="middle">COMPLETED</text>
      <text x="750" y="55" class="card-desc">Equipment availability conflict</text>
      <text x="750" y="72" class="card-desc">checking &amp; rental duration</text>
      <text x="750" y="89" class="card-desc">price calculation.</text>

      <!-- Payment Logic -->
      <rect x="990" y="0" width="245" height="120" rx="12" fill="#f8fafc" stroke="#94a3b8" stroke-dasharray="5 5" stroke-width="1.5"/>
      <text x="1005" y="25" class="card-title">💰 Payment Logic</text>
      <rect x="1155" y="10" width="65" height="20" rx="4" fill="#f1f5f9" stroke="#cbd5e1"/><text x="1187" y="24" class="badge-future" text-anchor="middle">FUTURE</text>
      <text x="1005" y="55" class="card-desc">Payment verification, payout</text>
      <text x="1005" y="72" class="card-desc">calculations &amp; status state</text>
      <text x="1005" y="89" class="card-desc">machine processing.</text>
    </g>
  </g>

  <!-- CONNECTOR 3 -> 4 & 5 -->
  <g transform="translate(700, 1055)">
    <line x1="0" y1="0" x2="0" y2="35" stroke="#2563eb" stroke-width="3" marker-end="url(#arrow)"/>
    <rect x="-225" y="5" width="450" height="26" rx="13" fill="#ffffff" stroke="#bfdbfe"/>
    <text x="0" y="22" class="arrow-text">Data Access Layer (SQL Queries, File I/O &amp; External Integrations)</text>
  </g>

  <!-- LAYERS 4 & 5 -->
  <g transform="translate(60, 1105)">
    <rect x="0" y="0" width="1280" height="470" rx="16" fill="#ffffff" stroke="#0369a1" stroke-width="2"/>
    <rect x="20" y="16" width="115" height="24" rx="12" fill="#2563eb"/><text x="77" y="32" font-size="12" font-weight="800" fill="#ffffff" text-anchor="middle">LAYERS 4 &amp; 5</text>
    <text x="145" y="33" class="layer-title">Persistence, File Storage &amp; External Integrations</text>
    <text x="1260" y="33" class="layer-subtitle" text-anchor="end">MySQL Relational Storage, Local Static Uploads &amp; External Services</text>
    <line x1="20" y1="50" x2="1260" y2="50" stroke="#e2e8f0" stroke-width="2"/>

    <!-- Database Section -->
    <g transform="translate(20, 65)">
      <rect x="0" y="0" width="600" height="380" rx="12" fill="#ffffff" stroke="#0284c7" stroke-width="1.5"/>
      <text x="20" y="30" font-size="16" font-weight="800" fill="#0369a1">🗄️ MySQL Database</text>
      <rect x="470" y="12" width="110" height="22" rx="4" fill="#dbeafe" stroke="#93c5fd"/><text x="525" y="27" font-size="11" font-weight="700" fill="#1d4ed8" text-anchor="middle">RELATIONAL DB</text>
      <text x="20" y="55" font-size="12" fill="#475569">Structured relational database hosting application data tables:</text>

      <!-- Tables Grid -->
      <g transform="translate(20, 70)">
        <!-- Row 1 -->
        <rect x="0" y="0" width="130" height="65" rx="8" fill="#ffffff" stroke="#93c5fd"/>
        <text x="10" y="20" class="tbl-name">users <tspan fill="#2563eb">✓</tspan></text>
        <text x="10" y="38" class="tbl-cols">id, name, email,</text>
        <text x="10" y="52" class="tbl-cols">password, role</text>

        <rect x="140" y="0" width="130" height="65" rx="8" fill="#ffffff" stroke="#93c5fd"/>
        <text x="150" y="20" class="tbl-name">categories <tspan fill="#2563eb">✓</tspan></text>
        <text x="150" y="38" class="tbl-cols">id, name, image,</text>
        <text x="150" y="52" class="tbl-cols">description</text>

        <rect x="280" y="0" width="130" height="65" rx="8" fill="#ffffff" stroke="#93c5fd"/>
        <text x="290" y="20" class="tbl-name">equipment <tspan fill="#2563eb">✓</tspan></text>
        <text x="290" y="38" class="tbl-cols">id, owner_id, title,</text>
        <text x="290" y="52" class="tbl-cols">price, status</text>

        <rect x="420" y="0" width="130" height="65" rx="8" fill="#ffffff" stroke="#93c5fd"/>
        <text x="430" y="20" class="tbl-name">bookings <tspan fill="#2563eb">✓</tspan></text>
        <text x="430" y="38" class="tbl-cols">id, equipment_id,</text>
        <text x="430" y="52" class="tbl-cols">farmer_id, dates</text>

        <!-- Row 2 -->
        <rect x="0" y="80" width="130" height="65" rx="8" fill="#f8fafc" stroke="#cbd5e1" stroke-dasharray="3 3"/>
        <text x="10" y="100" class="tbl-name" fill="#64748b">payments ⏳</text>
        <text x="10" y="118" class="tbl-cols">id, booking_id,</text>
        <text x="10" y="132" class="tbl-cols">amount, status</text>

        <rect x="140" y="80" width="130" height="65" rx="8" fill="#f8fafc" stroke="#cbd5e1" stroke-dasharray="3 3"/>
        <text x="150" y="100" class="tbl-name" fill="#64748b">notifications ⏳</text>
        <text x="150" y="118" class="tbl-cols">id, user_id,</text>
        <text x="150" y="132" class="tbl-cols">message, is_read</text>

        <rect x="280" y="80" width="130" height="65" rx="8" fill="#f8fafc" stroke="#cbd5e1" stroke-dasharray="3 3"/>
        <text x="290" y="100" class="tbl-name" fill="#64748b">reviews ⏳</text>
        <text x="290" y="118" class="tbl-cols">id, equipment_id,</text>
        <text x="290" y="132" class="tbl-cols">rating, comment</text>
      </g>
    </g>

    <!-- File Storage Section -->
    <g transform="translate(640, 65)">
      <rect x="0" y="0" width="280" height="380" rx="12" fill="#ffffff" stroke="#0284c7" stroke-width="1.5"/>
      <text x="20" y="30" font-size="16" font-weight="800" fill="#0369a1">📁 File Storage</text>
      <rect x="180" y="12" width="80" height="22" rx="4" fill="#dbeafe" stroke="#93c5fd"/><text x="220" y="27" font-size="11" font-weight="700" fill="#1d4ed8" text-anchor="middle">MULTER</text>
      <text x="20" y="55" font-size="12" fill="#475569">Disk storage for uploaded media:</text>

      <rect x="20" y="80" width="240" height="40" rx="8" fill="#ffffff" stroke="#cbd5e1"/>
      <text x="35" y="105" font-family="monospace" font-size="12" fill="#0f172a">🖼️ uploads/equipment/</text>

      <rect x="20" y="130" width="240" height="40" rx="8" fill="#ffffff" stroke="#cbd5e1"/>
      <text x="35" y="155" font-family="monospace" font-size="12" fill="#0f172a">👤 uploads/profiles/</text>
    </g>

    <!-- External Services Section -->
    <g transform="translate(940, 65)">
      <rect x="0" y="0" width="320" height="380" rx="12" fill="#f8fafc" stroke="#94a3b8" stroke-dasharray="5 5" stroke-width="1.5"/>
      <text x="20" y="30" font-size="16" font-weight="800" fill="#6b21a8">🌐 External Services</text>
      <rect x="225" y="12" width="75" height="22" rx="4" fill="#f1f5f9" stroke="#cbd5e1"/><text x="262" y="27" font-size="11" font-weight="700" fill="#64748b" text-anchor="middle">PLANNED</text>
      <text x="20" y="55" font-size="12" fill="#475569">Third-party external integrations:</text>

      <!-- Payment Gateway -->
      <g transform="translate(15, 80)">
        <rect x="0" y="0" width="290" height="90" rx="10" fill="#faf5ff" stroke="#c084fc" stroke-dasharray="4 4"/>
        <text x="15" y="25" font-size="13" font-weight="700" fill="#6b21a8">💳 Payment Gateway API</text>
        <rect x="210" y="10" width="65" height="18" rx="4" fill="#f1f5f9" stroke="#cbd5e1"/><text x="242" y="23" font-size="10" font-weight="700" fill="#64748b" text-anchor="middle">FUTURE</text>
        <text x="15" y="50" font-size="11" fill="#7e22ce">Stripe / Razorpay API integration for</text>
        <text x="15" y="66" font-size="11" fill="#7e22ce">secure online rental payments.</text>
      </g>

      <!-- Email Service -->
      <g transform="translate(15, 185)">
        <rect x="0" y="0" width="290" height="90" rx="10" fill="#faf5ff" stroke="#c084fc" stroke-dasharray="4 4"/>
        <text x="15" y="25" font-size="13" font-weight="700" fill="#6b21a8">✉️ Email SMTP Service</text>
        <rect x="210" y="10" width="65" height="18" rx="4" fill="#f1f5f9" stroke="#cbd5e1"/><text x="242" y="23" font-size="10" font-weight="700" fill="#64748b" text-anchor="middle">FUTURE</text>
        <text x="15" y="50" font-size="11" fill="#7e22ce">SendGrid / Nodemailer service for</text>
        <text x="15" y="66" font-size="11" fill="#7e22ce">automated booking email alerts.</text>
      </g>
    </g>
  </g>

  <!-- Gradients -->
  <linearGradient id="blueGrad" x1="0" y1="0" x2="1" y2="1">
    <stop offset="0%" stop-color="#1e40af"/>
    <stop offset="100%" stop-color="#2563eb"/>
  </linearGradient>

  <!-- Footer -->
  <text x="700" y="1640" font-size="12" font-weight="500" fill="#94a3b8" text-anchor="middle">Agricultural Equipment Rental Marketplace • System Architecture Diagram • Capstone Project</text>
</svg>
